<svg width="23" height="22" viewBox="0 0 23 22" fill="none" xmlns="http://www.w3.org/2000/svg">
<path d="M1.32446 13.7696C1.10062 15.1636 2.10139 16.1312 3.32671 16.6134C8.02434 18.4622 14.5616 18.4622 19.2592 16.6134C20.4845 16.1312 21.4853 15.1636 21.2615 13.7696C21.1239 12.9129 20.4437 12.1995 19.9397 11.5029C19.2796 10.5793 19.214 9.5718 19.2139 8.5C19.2139 4.35786 15.6676 1 11.293 1C6.91837 1 3.37205 4.35786 3.37205 8.5C3.37195 9.5718 3.30636 10.5793 2.64624 11.5029C2.14227 12.1995 1.46203 12.9129 1.32446 13.7696Z" stroke="white" stroke-width="1.5" stroke-linecap="round" stroke-linejoin="round"/>
<path d="M7.08203 18C7.56465 19.7252 9.26677 21 11.2926 21C13.3183 21 15.0204 19.7252 15.5031 18" stroke="white" stroke-width="1.5" stroke-linecap="round" stroke-linejoin="round"/>
</svg>
