<svg width="23" height="22" viewBox="0 0 23 22" fill="none" xmlns="http://www.w3.org/2000/svg">
<path d="M5.26806 14.4816C3.69609 15.324 -0.425519 17.0441 2.08482 19.1966C3.3111 20.248 4.67685 21 6.39395 21H16.192C17.9091 21 19.2749 20.248 20.5011 19.1966C23.0115 17.0441 18.8899 15.324 17.3179 14.4816C13.6317 12.5061 8.95431 12.5061 5.26806 14.4816Z" stroke="white" stroke-width="1.5" stroke-linecap="round" stroke-linejoin="round"/>
<path d="M16.293 5.5C16.293 7.98528 14.0544 10 11.293 10C8.53155 10 6.29297 7.98528 6.29297 5.5C6.29297 3.01472 8.53155 1 11.293 1C14.0544 1 16.293 3.01472 16.293 5.5Z" stroke="white" stroke-width="1.5"/>
</svg>
