<svg width="23" height="22" viewBox="0 0 23 22" fill="none" xmlns="http://www.w3.org/2000/svg">
<path d="M1.29297 3.9375L8.20599 8.5457C10.7546 10.2446 11.8314 10.2446 14.38 8.5457L21.293 3.9375" stroke="white" stroke-width="1.5" stroke-linejoin="round"/>
<path d="M1.30874 12.736C1.37411 16.3426 1.4068 18.1458 2.53793 19.4816C3.66905 20.8174 5.2433 20.8639 8.3918 20.9569C10.3323 21.0144 12.2537 21.0144 14.1942 20.9569C17.3427 20.8639 18.9169 20.8174 20.0481 19.4816C21.1792 18.1458 21.2119 16.3426 21.2772 12.736C21.2983 11.5764 21.2983 10.4236 21.2772 9.264C21.2119 5.65748 21.1792 3.85422 20.0481 2.51842C18.9169 1.18262 17.3427 1.1361 14.1942 1.04303C12.2537 0.98566 10.3323 0.98566 8.39179 1.04301C5.2433 1.13607 3.66905 1.1826 2.53792 2.51841C1.40679 3.85421 1.37411 5.65747 1.30873 9.264C1.28771 10.4236 1.28772 11.5764 1.30874 12.736Z" stroke="white" stroke-width="1.5" stroke-linejoin="round"/>
</svg>
