<svg width="106" height="36" viewBox="0 0 106 36" fill="none" xmlns="http://www.w3.org/2000/svg">
<path d="M18.5107 0H19.4975L20.2673 0.0394737L21.1357 0.118421L21.866 0.217105L22.7344 0.375L23.3462 0.513158L24.2146 0.75L24.9252 0.986842L25.4778 1.18421L26.1094 1.44079L26.8002 1.75658L27.5107 2.11184L27.9844 2.38816L28.3988 2.625L28.8923 2.94079L29.3265 3.23684L29.6817 3.49342L30.1949 3.88816L30.412 4.06579L30.6686 4.28289L30.9449 4.51974L31.4186 4.95395L32.1686 5.70395L32.3067 5.86184L32.5238 6.09868L32.7015 6.31579L32.9581 6.61184L33.2146 6.94737L33.4317 7.22368L33.6883 7.57895L33.9844 8.01316L34.3002 8.50658L34.537 8.90132L34.7936 9.35526L35.0304 9.80921L35.3067 10.3618L35.6028 11.0329L35.8791 11.7434L36.1949 12.6711L36.4317 13.5197L36.6488 14.4868L36.787 15.2961L36.8857 16.0855L36.9646 17.0724L36.9844 17.7237V18.2763L36.9646 18.9276L36.9054 19.7171L36.8462 20.25L36.7673 20.8224L36.6488 21.5132L36.491 22.2434L36.2738 23.0526L36.0567 23.7434L35.8594 24.3158L35.5831 25.0066L35.2673 25.7171L34.8331 26.5855L34.5567 27.0592L34.3988 27.3355L34.162 27.7105L33.9054 28.1053L33.6686 28.4408L33.412 28.7961L33.2146 29.0526L32.9581 29.3684L32.8002 29.5658L32.5436 29.8618L32.1883 30.2566L31.912 30.5526L31.3594 31.1053L31.2015 31.2434L30.9252 31.5L30.7081 31.6776L30.5107 31.8553L30.2344 32.0724L29.9383 32.3092L29.6225 32.5461L29.2278 32.8224L28.8133 33.0987L28.3791 33.375L27.866 33.6711L27.2936 33.9868L26.7015 34.2829L25.991 34.5987L25.2804 34.875L24.5502 35.1316L23.741 35.3684L22.9515 35.5658L22.1423 35.7237L21.5107 35.8224L20.6423 35.9211L19.8331 35.9803L19.2607 36H18.6686L18.0765 35.9803L17.0699 35.9013L16.2804 35.8026L15.3725 35.6447L14.4449 35.4276L13.7344 35.2303L12.9449 34.9737L12.116 34.6579L11.5831 34.4211L11.1094 34.2039L10.4383 33.8684L9.96464 33.5921L9.60938 33.3947L9.21464 33.1382L8.93832 32.9605L8.26727 32.4868L7.99095 32.2697L7.73437 32.0724L7.41859 31.8158L7.22122 31.6382L7.00411 31.4605L6.68832 31.1645L6.3528 30.8487L5.95806 30.4539L5.8199 30.2961L5.62253 30.0987L5.4449 29.8816L5.2278 29.6447L5.05016 29.4276L4.79359 29.1118L4.55674 28.7961L4.28043 28.4211L3.96464 27.9671L3.76727 27.6513L3.53043 27.2763L3.27385 26.8224L3.07648 26.4671L2.74095 25.8158L2.46464 25.2039L2.2278 24.6316L1.97122 23.9408L1.73438 23.2105L1.49753 22.3421L1.3199 21.5329L1.18174 20.7434L1.06332 19.7961L1.00411 19.0066L0.984375 18.5526V17.4079L1.02385 16.6579L1.08306 16.0066L1.18174 15.2368L1.33964 14.3684L1.51727 13.5789L1.65543 13.0658L1.81332 12.5329L2.10938 11.6645L2.34622 11.0724L2.54359 10.6184L2.80016 10.0658L3.03701 9.5921L3.27385 9.15789L3.58964 8.625L3.82648 8.25L4.08306 7.85526L4.33964 7.5L4.53701 7.22368L4.73437 6.9671L4.97122 6.67105L5.10938 6.49342L5.28701 6.29605L5.46464 6.07895L5.68174 5.8421L5.76069 5.74342H5.80016L5.83964 5.66447L6.15543 5.34868L6.29359 5.19079L6.53043 4.97368L6.70806 4.79605L6.86595 4.65789L7.12253 4.42105L7.33964 4.24342L7.61595 4.00658L7.87253 3.80921L8.14885 3.59211L8.50411 3.33553L8.89885 3.05921L9.3528 2.76316L9.76727 2.50658L10.2607 2.23026L10.4778 2.11184L10.9317 1.875L11.2475 1.71711L11.9383 1.40132L12.6488 1.125L13.0238 0.986842L13.6949 0.769737L14.4844 0.552632L15.3331 0.355263L16.3396 0.177632L17.1883 0.0789474L17.9778 0.0197368L18.5107 0Z" fill="black"/>
<mask id="path-2-inside-1_1608_1067" fill="white">
<path d="M13.1009 9.78906H24.8444L25.2786 9.84827L25.6931 9.96669L26.0088 10.1049L26.3246 10.3022L26.6404 10.5588L26.8773 10.8154L27.0549 11.072L27.1931 11.3088L27.3115 11.6049L27.4299 12.0193L27.7259 13.4206L27.8838 14.1509L27.9036 14.1904L28.5746 14.2101L28.5549 13.5588V13.1838L28.5944 13.0456L28.6931 12.947L28.8115 12.8877L31.1602 12.868L31.7128 12.8877L31.8312 12.9667L31.9102 13.0654L31.9299 13.1641V14.9601L31.8707 15.118L31.772 15.197L31.4562 15.2759L30.2917 15.4733L28.9694 15.6904H28.8115L28.6536 15.6114L28.5944 15.5325L28.5746 15.4733V14.8417H28.022L28.1799 15.4733L28.3575 16.243L28.4562 16.322L28.6931 16.4601L28.9694 16.6575L29.2062 16.8746L29.4036 17.072L29.6404 17.4075L29.7983 17.6838L29.9562 18.0588L30.0549 18.4535L30.1141 18.8877L30.2917 20.9009L30.3312 21.5917V24.9075L30.272 25.2825L30.1931 25.4799L30.0549 25.697L29.8181 25.9338L29.6404 26.0522L29.3838 26.1509L29.2259 26.1904L27.0154 26.2101H26.4233L26.147 26.1706L25.8312 26.0522L25.6141 25.9141L25.4167 25.7167L25.2588 25.4404L25.1799 25.2233L25.1404 24.9667L25.1207 24.3351H12.8444L12.8246 24.947L12.7852 25.2233L12.6667 25.5193L12.4694 25.7956L12.3115 25.9338L12.0944 26.072L11.8181 26.1706L11.522 26.2101H8.91674L8.66016 26.1706L8.38384 26.072L8.18647 25.9535L7.9891 25.7759L7.87068 25.618L7.75226 25.3812L7.69305 25.1443L7.67331 24.9667L7.65358 24.0588V21.8088L7.69305 20.9206L7.87068 18.947L7.92989 18.493L8.02858 18.0983L8.12726 17.8417L8.28516 17.5259L8.48252 17.2299L8.66016 17.0127L8.95621 16.7167L9.31147 16.4601L9.62726 16.2825L9.68647 16.0456L9.92331 14.8417L9.41016 14.8614V15.3943L9.33121 15.572L9.19305 15.6706L9.05489 15.6904L8.20621 15.5522L6.41016 15.2562L6.15358 15.1772L6.05489 15.0588L6.03516 14.9799V13.0851L6.09437 12.9864L6.25226 12.8877L6.42989 12.868H8.97595L9.19305 12.8877L9.31147 12.9667L9.39042 13.0851L9.41016 13.4009V14.2101L10.0615 14.1904L10.1602 13.7759L10.4562 12.3943L10.6141 11.7233L10.7325 11.4272L10.8707 11.1509L11.0286 10.9141L11.2654 10.6377L11.4036 10.4996L11.6799 10.2825L12.0352 10.0654L12.4299 9.90748L12.7654 9.82854L13.1009 9.78906Z"/>
</mask>
<path d="M13.1009 9.78906H24.8444L25.2786 9.84827L25.6931 9.96669L26.0088 10.1049L26.3246 10.3022L26.6404 10.5588L26.8773 10.8154L27.0549 11.072L27.1931 11.3088L27.3115 11.6049L27.4299 12.0193L27.7259 13.4206L27.8838 14.1509L27.9036 14.1904L28.5746 14.2101L28.5549 13.5588V13.1838L28.5944 13.0456L28.6931 12.947L28.8115 12.8877L31.1602 12.868L31.7128 12.8877L31.8312 12.9667L31.9102 13.0654L31.9299 13.1641V14.9601L31.8707 15.118L31.772 15.197L31.4562 15.2759L30.2917 15.4733L28.9694 15.6904H28.8115L28.6536 15.6114L28.5944 15.5325L28.5746 15.4733V14.8417H28.022L28.1799 15.4733L28.3575 16.243L28.4562 16.322L28.6931 16.4601L28.9694 16.6575L29.2062 16.8746L29.4036 17.072L29.6404 17.4075L29.7983 17.6838L29.9562 18.0588L30.0549 18.4535L30.1141 18.8877L30.2917 20.9009L30.3312 21.5917V24.9075L30.272 25.2825L30.1931 25.4799L30.0549 25.697L29.8181 25.9338L29.6404 26.0522L29.3838 26.1509L29.2259 26.1904L27.0154 26.2101H26.4233L26.147 26.1706L25.8312 26.0522L25.6141 25.9141L25.4167 25.7167L25.2588 25.4404L25.1799 25.2233L25.1404 24.9667L25.1207 24.3351H12.8444L12.8246 24.947L12.7852 25.2233L12.6667 25.5193L12.4694 25.7956L12.3115 25.9338L12.0944 26.072L11.8181 26.1706L11.522 26.2101H8.91674L8.66016 26.1706L8.38384 26.072L8.18647 25.9535L7.9891 25.7759L7.87068 25.618L7.75226 25.3812L7.69305 25.1443L7.67331 24.9667L7.65358 24.0588V21.8088L7.69305 20.9206L7.87068 18.947L7.92989 18.493L8.02858 18.0983L8.12726 17.8417L8.28516 17.5259L8.48252 17.2299L8.66016 17.0127L8.95621 16.7167L9.31147 16.4601L9.62726 16.2825L9.68647 16.0456L9.92331 14.8417L9.41016 14.8614V15.3943L9.33121 15.572L9.19305 15.6706L9.05489 15.6904L8.20621 15.5522L6.41016 15.2562L6.15358 15.1772L6.05489 15.0588L6.03516 14.9799V13.0851L6.09437 12.9864L6.25226 12.8877L6.42989 12.868H8.97595L9.19305 12.8877L9.31147 12.9667L9.39042 13.0851L9.41016 13.4009V14.2101L10.0615 14.1904L10.1602 13.7759L10.4562 12.3943L10.6141 11.7233L10.7325 11.4272L10.8707 11.1509L11.0286 10.9141L11.2654 10.6377L11.4036 10.4996L11.6799 10.2825L12.0352 10.0654L12.4299 9.90748L12.7654 9.82854L13.1009 9.78906Z" fill="black" stroke="black" stroke-width="4" mask="url(#path-2-inside-1_1608_1067)"/>
<path d="M27.6143 23.7871L27.5479 23.6719L27.4688 23.5342L27.4043 23.4209L27.292 23.3535L27.1934 23.2939L27.1025 23.2402L26.998 23.2266L26.8408 23.207L26.8105 23.2031H26.7803L23.0869 23.1855L23.0742 22.2354V22.1895L23.0645 22.1445L23.0254 21.9473L22.9902 21.7744L22.8555 21.6611L22.7363 21.5625L22.6084 21.4561L22.4424 21.4473L22.0674 21.4277L22.0547 21.4268H15.7822L15.7598 21.4287L15.542 21.4482L15.4336 21.458L15.3398 21.5127L15.2012 21.5918L15.1113 21.6426L15.0498 21.7256L14.9902 21.8047L14.9219 21.8955L14.9004 22.0068L14.8799 22.1055L14.8701 22.1533V23.1855L11.0654 23.2031H10.9756L10.8926 23.2354L10.7344 23.2939L10.5918 23.3477L10.5029 23.4717L10.4043 23.6104L10.3115 23.7402V24.2109L10.377 24.3262L10.4561 24.4639L10.5234 24.583L10.6426 24.6504L10.7803 24.7295L10.8916 24.793L11.0195 24.7949L11.6924 24.8057V24.8975L11.668 24.9629L11.6279 25.0166L11.5781 25.0596L11.542 25.0781H8.97168L8.92578 25.0674L8.92383 25.0664L8.81152 24.8408H8.80469V21.5908L8.84277 20.8262L8.97949 19.2764L9.03613 18.7441L9.10059 18.458L9.17871 18.2373L9.32031 17.9707L9.46094 17.7891H9.63184L9.71582 17.5361L9.88184 17.4111L10.1064 17.2822L10.3184 17.1914L10.6299 17.1094L10.8965 17.0781H27.1514L27.4297 17.124L27.7119 17.2188L27.9785 17.3525L28.1914 17.4902L28.3467 17.6299L28.4258 17.709L28.5488 17.8467L28.6924 18.0703L28.8203 18.3271L28.9131 18.6211L28.9658 18.9854L29.1406 20.9648V20.9658L29.1797 21.6904V24.8574L29.1631 24.9404L29.1426 24.9814L29.1084 25.0215L29.0342 25.0713L29.0176 25.0781H26.3926L26.3506 25.0625L26.2666 24.9863L26.2324 24.8047L26.7686 24.7949L26.8125 24.7939L26.8564 24.7852L27.0537 24.7461L27.1787 24.7207L27.2764 24.6396L27.3945 24.541L27.4746 24.4746L27.5215 24.3809L27.5615 24.3018L27.6143 24.1963V23.7871Z" fill="white" stroke="white"/>
<path d="M24.2738 10.3906H24.7673L25.1028 10.4301L25.4383 10.5288L25.7541 10.6867L25.9712 10.8248L26.1686 10.9827L26.3462 11.1604L26.5238 11.4169L26.6817 11.713L26.8002 12.1077L26.9778 12.9367L27.491 15.384L27.6094 15.9367L27.2146 15.9564H25.7344L10.3594 15.9367L10.3791 15.759L11.0699 12.463L11.1883 11.9498L11.3067 11.634L11.4449 11.3775L11.6423 11.1209L11.8791 10.884L12.0765 10.7459L12.2541 10.6472L12.412 10.5683L12.6883 10.4696L13.0041 10.4104L24.2738 10.3906Z" fill="white"/>
<path d="M27.4307 19.1719L27.5322 19.1924L27.5771 19.2109L27.6299 19.248L27.6738 19.3086L27.7295 19.4424L27.7529 19.5654V19.7617L27.7227 19.8975L27.6641 20.0215L27.6143 20.082L27.5918 20.1016L27.5693 20.1143L27.46 20.1484L27.4336 20.1523H24.5557L24.4795 20.1357L24.3867 20.0957L24.3223 20.0508L24.2715 20.0049L24.2178 19.9209L24.1875 19.8438V19.7969L24.4873 19.7246L25.9131 19.4502L27.3232 19.1777L27.3652 19.1719H27.4307Z" fill="black" stroke="black" stroke-width="2"/>
<path d="M10.8652 19.2188L11.4717 19.3232L12.9834 19.6133V19.6143L13.9238 19.8018L13.9834 19.8203L13.9736 19.8623L13.9111 19.9854L13.8555 20.0557L13.8184 20.0928L13.7471 20.1367L13.709 20.1504L13.6631 20.1592H10.7871L10.6943 20.1445L10.5898 20.1094L10.5732 20.0996L10.5469 20.0723L10.4912 19.9756L10.4531 19.876L10.4297 19.7578V19.5918L10.4531 19.4668L10.501 19.3477L10.5303 19.3018L10.582 19.25L10.6143 19.2305L10.6436 19.2188H10.8652Z" fill="black" stroke="black" stroke-width="2"/>
<mask id="path-7-inside-2_1608_1067" fill="white">
<path d="M16.0197 22.5312H21.9408L21.9605 22.551V23.676H18.9901H16.0197L16 23.6562V22.551L16.0197 22.5312Z"/>
</mask>
<path d="M16.0197 22.5312H21.9408L21.9605 22.551V23.676H18.9901H16.0197L16 23.6562V22.551L16.0197 22.5312Z" fill="black"/>
<path d="M16.0197 22.5312V20.5312H15.1913L14.6055 21.117L16.0197 22.5312ZM21.9408 22.5312L23.355 21.117L22.7692 20.5312H21.9408V22.5312ZM21.9605 22.551H23.9605V21.7226L23.3748 21.1368L21.9605 22.551ZM21.9605 23.676V25.676H23.9605V23.676H21.9605ZM16.0197 23.676L14.6055 25.0902L15.1913 25.676H16.0197V23.676ZM16 23.6562H14V24.4847L14.5858 25.0705L16 23.6562ZM16 22.551L14.5858 21.1368L14 21.7226V22.551H16ZM16.0197 24.5312H21.9408V20.5312H16.0197V24.5312ZM20.5266 23.9455L20.5463 23.9652L23.3748 21.1368L23.355 21.117L20.5266 23.9455ZM19.9605 22.551V23.676H23.9605V22.551H19.9605ZM17.434 22.2618L17.4142 22.242L14.5858 25.0705L14.6055 25.0902L17.434 22.2618ZM18 23.6562V22.551H14V23.6562H18ZM17.4142 23.9652L17.434 23.9455L14.6055 21.117L14.5858 21.1368L17.4142 23.9652ZM21.9605 21.676H18.9901V25.676H21.9605V21.676ZM18.9901 21.676H16.0197V25.676H18.9901V21.676Z" fill="black" mask="url(#path-7-inside-2_1608_1067)"/>
<mask id="path-9-inside-3_1608_1067" fill="white">
<path d="M27.3296 18.7734L27.5467 18.7932L27.7835 18.8919L27.9414 19.03L28.0796 19.2471L28.1585 19.5037V19.8392L28.0796 20.0958L27.9414 20.2932L27.7835 20.4313L27.6059 20.5103L27.5269 20.53H24.4282L24.2309 20.4511L23.994 20.234L23.8559 20.0366L23.8164 19.9379V19.6813L23.9151 19.5432L24.073 19.4642L24.369 19.3853L25.9085 19.0695L27.2111 18.7932L27.3296 18.7734Z"/>
</mask>
<path d="M27.3296 18.7734L27.5467 18.7932L27.7835 18.8919L27.9414 19.03L28.0796 19.2471L28.1585 19.5037V19.8392L28.0796 20.0958L27.9414 20.2932L27.7835 20.4313L27.6059 20.5103L27.5269 20.53H24.4282L24.2309 20.4511L23.994 20.234L23.8559 20.0366L23.8164 19.9379V19.6813L23.9151 19.5432L24.073 19.4642L24.369 19.3853L25.9085 19.0695L27.2111 18.7932L27.3296 18.7734Z" fill="black"/>
<path d="M27.3296 18.7734L27.5106 16.7817L27.2545 16.7584L27.0008 16.8006L27.3296 18.7734ZM27.5467 18.7932L28.3159 16.947L28.033 16.8291L27.7277 16.8014L27.5467 18.7932ZM27.7835 18.8919L29.1005 17.3867L28.8545 17.1714L28.5527 17.0457L27.7835 18.8919ZM27.9414 19.03L29.6287 17.9563L29.4745 17.714L29.2584 17.5249L27.9414 19.03ZM28.0796 19.2471L29.9911 18.659L29.9118 18.401L29.7669 18.1734L28.0796 19.2471ZM28.1585 19.5037H30.1585V19.203L30.0701 18.9155L28.1585 19.5037ZM28.1585 19.8392L30.0701 20.4274L30.1585 20.14V19.8392H28.1585ZM28.0796 20.0958L29.718 21.2427L29.8985 20.9848L29.9911 20.684L28.0796 20.0958ZM27.9414 20.2932L29.2584 21.7983L29.4409 21.6387L29.5799 21.4401L27.9414 20.2932ZM27.7835 20.4313L28.5958 22.259L28.8726 22.1359L29.1005 21.9365L27.7835 20.4313ZM27.6059 20.5103L28.091 22.4506L28.2594 22.4084L28.4182 22.3379L27.6059 20.5103ZM27.5269 20.53V22.53H27.7731L28.012 22.4703L27.5269 20.53ZM24.4282 20.53L23.6855 22.387L24.0431 22.53H24.4282V20.53ZM24.2309 20.4511L22.8794 21.9254L23.1488 22.1723L23.4881 22.308L24.2309 20.4511ZM23.994 20.234L22.3556 21.3809L22.4812 21.5603L22.6426 21.7083L23.994 20.234ZM23.8559 20.0366L21.9989 20.7794L22.0848 20.9941L22.2174 21.1835L23.8559 20.0366ZM23.8164 19.9379H21.8164V20.3231L21.9595 20.6807L23.8164 19.9379ZM23.8164 19.6813L22.1889 18.5189L21.8164 19.0404V19.6813H23.8164ZM23.9151 19.5432L23.0207 17.7543L22.5764 17.9765L22.2876 18.3807L23.9151 19.5432ZM24.073 19.4642L23.5577 17.5318L23.3608 17.5843L23.1786 17.6754L24.073 19.4642ZM24.369 19.3853L23.9671 17.4261L23.91 17.4378L23.8537 17.4528L24.369 19.3853ZM25.9085 19.0695L26.3104 21.0287L26.3235 21.026L25.9085 19.0695ZM27.2111 18.7932L26.8823 16.8204L26.8391 16.8276L26.7961 16.8367L27.2111 18.7932ZM27.1485 20.7652L27.3656 20.785L27.7277 16.8014L27.5106 16.7817L27.1485 20.7652ZM26.7774 20.6393L27.0143 20.738L28.5527 17.0457L28.3159 16.947L26.7774 20.6393ZM26.4665 20.397L26.6244 20.5352L29.2584 17.5249L29.1005 17.3867L26.4665 20.397ZM26.2541 20.1038L26.3922 20.3209L29.7669 18.1734L29.6287 17.9563L26.2541 20.1038ZM26.168 19.8353L26.247 20.0919L30.0701 18.9155L29.9911 18.659L26.168 19.8353ZM26.1585 19.5037V19.8392H30.1585V19.5037H26.1585ZM26.247 19.2511L26.168 19.5076L29.9911 20.684L30.0701 20.4274L26.247 19.2511ZM26.4411 18.9489L26.3029 19.1462L29.5799 21.4401L29.718 21.2427L26.4411 18.9489ZM26.6244 18.788L26.4665 18.9262L29.1005 21.9365L29.2584 21.7983L26.6244 18.788ZM26.9712 18.6037L26.7936 18.6827L28.4182 22.3379L28.5958 22.259L26.9712 18.6037ZM27.1208 18.57L27.0419 18.5897L28.012 22.4703L28.091 22.4506L27.1208 18.57ZM27.5269 18.53H24.4282V22.53H27.5269V18.53ZM25.171 18.6731L24.9737 18.5941L23.4881 22.308L23.6855 22.387L25.171 18.6731ZM25.5823 18.9768L25.3455 18.7597L22.6426 21.7083L22.8794 21.9254L25.5823 18.9768ZM25.6325 19.087L25.4943 18.8897L22.2174 21.1835L22.3556 21.3809L25.6325 19.087ZM25.7128 19.2938L25.6734 19.1951L21.9595 20.6807L21.9989 20.7794L25.7128 19.2938ZM25.8164 19.9379V19.6813H21.8164V19.9379H25.8164ZM25.4439 20.8438L25.5426 20.7057L22.2876 18.3807L22.1889 18.5189L25.4439 20.8438ZM24.8095 21.332L24.9674 21.2531L23.1786 17.6754L23.0207 17.7543L24.8095 21.332ZM24.5883 21.3967L24.8844 21.3177L23.8537 17.4528L23.5577 17.5318L24.5883 21.3967ZM24.7709 21.3445L26.3104 21.0287L25.5066 17.1103L23.9671 17.4261L24.7709 21.3445ZM26.3235 21.026L27.6262 20.7496L26.7961 16.8367L25.4935 17.113L26.3235 21.026ZM27.5399 20.766L27.6584 20.7462L27.0008 16.8006L26.8823 16.8204L27.5399 20.766Z" fill="black" mask="url(#path-9-inside-3_1608_1067)"/>
<mask id="path-11-inside-4_1608_1067" fill="white">
<path d="M10.6312 18.8047H10.947L12.9996 19.1994L13.9667 19.3968L14.1641 19.456L14.2825 19.535L14.3812 19.6731L14.4009 19.7323V19.8705L14.322 20.0481L14.2035 20.2257L14.0456 20.3836L13.8088 20.5021L13.7299 20.5218H10.6509L10.4535 20.4428L10.2759 20.3047L10.1377 20.1073L10.0588 19.8902L10.0391 19.7915V19.535L10.0983 19.2981L10.2167 19.0613L10.3746 18.9231L10.572 18.8244L10.6312 18.8047Z"/>
</mask>
<path d="M10.6312 18.8047H10.947L12.9996 19.1994L13.9667 19.3968L14.1641 19.456L14.2825 19.535L14.3812 19.6731L14.4009 19.7323V19.8705L14.322 20.0481L14.2035 20.2257L14.0456 20.3836L13.8088 20.5021L13.7299 20.5218H10.6509L10.4535 20.4428L10.2759 20.3047L10.1377 20.1073L10.0588 19.8902L10.0391 19.7915V19.535L10.0983 19.2981L10.2167 19.0613L10.3746 18.9231L10.572 18.8244L10.6312 18.8047Z" fill="white"/>
<path d="M10.6312 18.8047V16.8047H10.3066L9.99871 16.9073L10.6312 18.8047ZM10.947 18.8047L11.3247 16.8407L11.1375 16.8047H10.947V18.8047ZM12.9996 19.1994L13.3995 17.2398L13.3884 17.2376L13.3773 17.2354L12.9996 19.1994ZM13.9667 19.3968L14.5414 17.4811L14.455 17.4552L14.3666 17.4372L13.9667 19.3968ZM14.1641 19.456L15.2735 17.7919L15.0249 17.6262L14.7388 17.5404L14.1641 19.456ZM14.2825 19.535L15.91 18.3725L15.6969 18.0742L15.3919 17.8709L14.2825 19.535ZM14.3812 19.6731L16.2785 19.0407L16.1834 18.7554L16.0086 18.5106L14.3812 19.6731ZM14.4009 19.7323H16.4009V19.4078L16.2983 19.0999L14.4009 19.7323ZM14.4009 19.8705L16.2285 20.6828L16.4009 20.2949V19.8705H14.4009ZM14.322 20.0481L15.9861 21.1575L16.0805 21.0159L16.1496 20.8604L14.322 20.0481ZM14.2035 20.2257L15.6178 21.64L15.7578 21.4999L15.8676 21.3351L14.2035 20.2257ZM14.0456 20.3836L14.9401 22.1725L15.2304 22.0273L15.4599 21.7978L14.0456 20.3836ZM13.8088 20.5021L14.2939 22.4423L14.5069 22.3891L14.7032 22.2909L13.8088 20.5021ZM13.7299 20.5218V22.5218H13.9761L14.2149 22.4621L13.7299 20.5218ZM10.6509 20.5218L9.90812 22.3787L10.2657 22.5218H10.6509V20.5218ZM10.4535 20.4428L9.22565 22.0215L9.44856 22.1949L9.71075 22.2998L10.4535 20.4428ZM10.2759 20.3047L8.63744 21.4516L8.81021 21.6984L9.04802 21.8834L10.2759 20.3047ZM10.1377 20.1073L8.25816 20.7908L8.3482 21.0384L8.49928 21.2542L10.1377 20.1073ZM10.0588 19.8902L8.09764 20.2824L8.12738 20.4312L8.17921 20.5737L10.0588 19.8902ZM10.0391 19.7915H8.03906V19.9896L8.0779 20.1838L10.0391 19.7915ZM10.0391 19.535L8.09878 19.0499L8.03906 19.2887V19.535H10.0391ZM10.0983 19.2981L8.30942 18.4037L8.21124 18.6L8.15799 18.813L10.0983 19.2981ZM10.2167 19.0613L8.89968 17.5561L8.60372 17.8151L8.42784 18.1668L10.2167 19.0613ZM10.3746 18.9231L9.48016 17.1343L9.25067 17.249L9.05758 17.418L10.3746 18.9231ZM10.572 18.8244L9.9395 16.9271L9.80466 16.972L9.67753 17.0356L10.572 18.8244ZM10.6312 20.8047H10.947V16.8047H10.6312V20.8047ZM10.5693 20.7687L12.6219 21.1634L13.3773 17.2354L11.3247 16.8407L10.5693 20.7687ZM12.5997 21.159L13.5668 21.3564L14.3666 17.4372L13.3995 17.2398L12.5997 21.159ZM13.392 21.3124L13.5894 21.3717L14.7388 17.5404L14.5414 17.4811L13.392 21.3124ZM13.0547 21.1201L13.1731 21.1991L15.3919 17.8709L15.2735 17.7919L13.0547 21.1201ZM12.655 20.6974L12.7537 20.8356L16.0086 18.5106L15.91 18.3725L12.655 20.6974ZM12.4838 20.3056L12.5035 20.3648L16.2983 19.0999L16.2785 19.0407L12.4838 20.3056ZM12.4009 19.7323V19.8705H16.4009V19.7323H12.4009ZM12.5733 19.0582L12.4943 19.2358L16.1496 20.8604L16.2285 20.6828L12.5733 19.0582ZM12.6579 18.9387L12.5394 19.1163L15.8676 21.3351L15.9861 21.1575L12.6579 18.9387ZM12.7893 18.8115L12.6314 18.9694L15.4599 21.7978L15.6178 21.64L12.7893 18.8115ZM13.1512 18.5948L12.9144 18.7132L14.7032 22.2909L14.9401 22.1725L13.1512 18.5948ZM13.3237 18.5618L13.2448 18.5815L14.2149 22.4621L14.2939 22.4423L13.3237 18.5618ZM13.7299 18.5218H10.6509V22.5218H13.7299V18.5218ZM11.3937 18.6648L11.1963 18.5859L9.71075 22.2998L9.90812 22.3787L11.3937 18.6648ZM11.6814 18.8641L11.5038 18.726L9.04802 21.8834L9.22565 22.0215L11.6814 18.8641ZM11.9144 19.1578L11.7762 18.9604L8.49928 21.2542L8.63744 21.4516L11.9144 19.1578ZM12.0173 19.4238L11.9384 19.2067L8.17921 20.5737L8.25816 20.7908L12.0173 19.4238ZM12.02 19.498L12.0002 19.3993L8.0779 20.1838L8.09764 20.2824L12.02 19.498ZM12.0391 19.7915V19.535H8.03906V19.7915H12.0391ZM11.9793 20.02L12.0386 19.7832L8.15799 18.813L8.09878 19.0499L11.9793 20.02ZM11.8871 20.1925L12.0055 19.9557L8.42784 18.1668L8.30942 18.4037L11.8871 20.1925ZM11.5337 20.5664L11.6916 20.4283L9.05758 17.418L8.89968 17.5561L11.5337 20.5664ZM11.269 20.712L11.4664 20.6133L9.67753 17.0356L9.48016 17.1343L11.269 20.712ZM11.2044 20.7218L11.2636 20.7021L9.99871 16.9073L9.9395 16.9271L11.2044 20.7218Z" fill="black" mask="url(#path-11-inside-4_1608_1067)"/>
<mask id="path-13-inside-5_1608_1067" fill="white">
<path d="M29.2074 13.5H31.2601L31.2798 13.5197V14.6447L31.2009 14.6842L29.2864 15H29.168V13.5197L29.2074 13.5Z"/>
</mask>
<path d="M29.2074 13.5H31.2601L31.2798 13.5197V14.6447L31.2009 14.6842L29.2864 15H29.168V13.5197L29.2074 13.5Z" fill="black"/>
<path d="M29.2074 13.5V11.5H28.7353L28.313 11.7111L29.2074 13.5ZM31.2601 13.5L32.6743 12.0858L32.0885 11.5H31.2601V13.5ZM31.2798 13.5197H33.2798V12.6913L32.694 12.1055L31.2798 13.5197ZM31.2798 14.6447L32.1742 16.4336L33.2798 15.8808V14.6447H31.2798ZM31.2009 14.6842L31.5264 16.6575L31.8248 16.6083L32.0953 16.4731L31.2009 14.6842ZM29.2864 15V17H29.4502L29.6119 16.9733L29.2864 15ZM29.168 15H27.168V17H29.168V15ZM29.168 13.5197L28.2735 11.7309L27.168 12.2837V13.5197H29.168ZM29.2074 15.5H31.2601V11.5H29.2074V15.5ZM29.8459 14.9142L29.8656 14.934L32.694 12.1055L32.6743 12.0858L29.8459 14.9142ZM29.2798 13.5197V14.6447H33.2798V13.5197H29.2798ZM30.3854 12.8559L30.3064 12.8954L32.0953 16.4731L32.1742 16.4336L30.3854 12.8559ZM30.8754 12.7109L28.9609 13.0267L29.6119 16.9733L31.5264 16.6575L30.8754 12.7109ZM29.2864 13H29.168V17H29.2864V13ZM31.168 15V13.5197H27.168V15H31.168ZM30.0624 15.3086L30.1019 15.2889L28.313 11.7111L28.2735 11.7309L30.0624 15.3086Z" fill="white" mask="url(#path-13-inside-5_1608_1067)"/>
<path d="M7.10218 13.5H8.76007L8.77981 13.5197V15H8.64165L7.77323 14.8421L6.70744 14.6645L6.66797 14.625V13.5395L6.68771 13.5197L7.10218 13.5Z" fill="white"/>
<path d="M105.49 12.1501V15.2019H97.1367V12.1501H105.49ZM99.0331 8.64062H102.88V22.2972C102.88 22.6723 102.934 22.9647 103.043 23.1745C103.151 23.378 103.302 23.521 103.494 23.6037C103.693 23.6863 103.922 23.7277 104.181 23.7277C104.361 23.7277 104.542 23.7118 104.722 23.68C104.903 23.6418 105.041 23.6132 105.138 23.5941L105.743 26.6173C105.55 26.6808 105.279 26.754 104.93 26.8366C104.581 26.9256 104.156 26.9797 103.657 26.9987C102.73 27.0369 101.917 26.9065 101.219 26.6077C100.526 26.3089 99.9874 25.8448 99.6021 25.2154C99.2168 24.586 99.0271 23.7912 99.0331 22.8312V8.64062Z" fill="black"/>
<path d="M86.3939 18.3393V26.8078H82.5469V12.1595H86.2133V14.7439H86.3758C86.6829 13.892 87.1976 13.2181 87.9201 12.7221C88.6425 12.2199 89.5185 11.9688 90.548 11.9688C91.5112 11.9688 92.3511 12.1913 93.0675 12.6363C93.7839 13.0814 94.3408 13.7171 94.7381 14.5437C95.1355 15.3638 95.3342 16.3429 95.3342 17.481V26.8078H91.4871V18.2057C91.4932 17.3093 91.2764 16.6099 90.8369 16.1077C90.3975 15.599 89.7924 15.3447 89.0218 15.3447C88.504 15.3447 88.0465 15.4624 87.6492 15.6976C87.2578 15.9328 86.9508 16.2761 86.728 16.7276C86.5113 17.1726 86.3999 17.7098 86.3939 18.3393Z" fill="black"/>
<path d="M73.9243 27.0939C72.4974 27.0939 71.2693 26.7888 70.2398 26.1784C69.2163 25.5617 68.4277 24.6907 67.8738 23.5654C67.3199 22.4337 67.043 21.0954 67.043 19.5504C67.043 18.0436 67.3199 16.7212 67.8738 15.5832C68.4277 14.4451 69.2073 13.5582 70.2127 12.9224C71.2241 12.2866 72.4101 11.9688 73.7707 11.9688C74.6858 11.9688 75.5377 12.1245 76.3264 12.436C77.1211 12.7412 77.8134 13.2022 78.4034 13.8189C78.9994 14.4356 79.463 15.2112 79.7941 16.1458C80.1253 17.0741 80.2908 18.1612 80.2908 19.4074V20.5232H68.5782V18.0055H76.6696C76.6696 17.4206 76.5492 16.9024 76.3083 16.451C76.0675 15.9996 75.7334 15.6467 75.3059 15.3924C74.8845 15.1317 74.3939 15.0014 73.834 15.0014C73.25 15.0014 72.7322 15.1445 72.2807 15.4306C71.8352 15.7103 71.486 16.0886 71.2332 16.5654C70.9803 17.0359 70.8509 17.5604 70.8448 18.139V20.5327C70.8448 21.2575 70.9713 21.8837 71.2241 22.4114C71.483 22.9391 71.8472 23.346 72.3168 23.6321C72.7864 23.9182 73.3433 24.0613 73.9875 24.0613C74.4149 24.0613 74.8063 23.9977 75.1615 23.8705C75.5167 23.7434 75.8207 23.5526 76.0735 23.2983C76.3264 23.044 76.519 22.7325 76.6515 22.3637L80.2095 22.6117C80.0289 23.5145 79.6587 24.3029 79.0988 24.9768C78.5449 25.6444 77.8285 26.1657 76.9495 26.5408C76.0766 26.9095 75.0681 27.0939 73.9243 27.0939Z" fill="black"/>
<path d="M55.0167 20.008H58.3399L60.0106 22.2778L61.6541 24.2995L64.7516 28.4003H61.1033L58.9721 25.6347L57.8794 23.9944L55.0167 20.008ZM65.0316 17.0326C65.0316 19.1624 64.6493 20.9744 63.8847 22.4685C63.1261 23.9626 62.0906 25.1038 60.7782 25.8922C59.4718 26.6742 58.0028 27.0652 56.3713 27.0652C54.7277 27.0652 53.2527 26.671 51.9463 25.8826C50.6399 25.0943 49.6074 23.953 48.8488 22.459C48.0902 20.9649 47.7109 19.1561 47.7109 17.0326C47.7109 14.9027 48.0902 13.0908 48.8488 11.5967C49.6074 10.1026 50.6399 8.96456 51.9463 8.18255C53.2527 7.39418 54.7277 7 56.3713 7C58.0028 7 59.4718 7.39418 60.7782 8.18255C62.0906 8.96456 63.1261 10.1026 63.8847 11.5967C64.6493 13.0908 65.0316 14.9027 65.0316 17.0326ZM61.0672 17.0326C61.0672 15.6529 60.8715 14.4895 60.4802 13.5422C60.0949 12.5949 59.55 11.8764 58.8456 11.3869C58.1412 10.8973 57.3165 10.6525 56.3713 10.6525C55.4261 10.6525 54.6013 10.8973 53.8969 11.3869C53.1925 11.8764 52.6446 12.5949 52.2533 13.5422C51.868 14.4895 51.6754 15.6529 51.6754 17.0326C51.6754 18.4122 51.868 19.5757 52.2533 20.523C52.6446 21.4703 53.1925 22.1888 53.8969 22.6783C54.6013 23.1679 55.4261 23.4126 56.3713 23.4126C57.3165 23.4126 58.1412 23.1679 58.8456 22.6783C59.55 22.1888 60.0949 21.4703 60.4802 20.523C60.8715 19.5757 61.0672 18.4122 61.0672 17.0326Z" fill="black"/>
</svg>
