<svg width="15" height="15" viewBox="0 0 15 15" fill="none" xmlns="http://www.w3.org/2000/svg">
<path d="M11.9202 0.5V1.9M3.07812 0.5V1.9" stroke="#767676" stroke-linecap="round" stroke-linejoin="round"/>
<path d="M7.49874 8.20312H7.50537M7.49874 11.0031H7.50537M10.4428 8.20312H10.4494M4.55469 8.20312H4.5613M4.55469 11.0031H4.5613" stroke="#767676" stroke-linecap="round" stroke-linejoin="round"/>
<path d="M1.23828 4.70312H13.7646" stroke="#767676" stroke-linecap="round" stroke-linejoin="round"/>
<path d="M0.5 7.67337C0.5 4.62328 0.5 3.09822 1.42261 2.15067C2.34523 1.20313 3.83015 1.20312 6.8 1.20312H8.2C11.1698 1.20312 12.6548 1.20313 13.5774 2.15067C14.5 3.09822 14.5 4.62328 14.5 7.67337V8.03288C14.5 11.083 14.5 12.608 13.5774 13.5556C12.6548 14.5031 11.1698 14.5031 8.2 14.5031H6.8C3.83015 14.5031 2.34523 14.5031 1.42261 13.5556C0.5 12.608 0.5 11.083 0.5 8.03288V7.67337Z" stroke="#767676" stroke-linecap="round" stroke-linejoin="round"/>
<path d="M0.867188 4.70312H14.1303" stroke="#767676" stroke-linecap="round" stroke-linejoin="round"/>
</svg>
