<svg width="20" height="20" viewBox="0 0 20 20" fill="none" xmlns="http://www.w3.org/2000/svg">
<path d="M1.33301 7.16797H2.66602C3.07785 7.16804 3.49897 7.55473 3.49902 8.14941V14.5762H16.501V8.14941C16.501 7.55681 16.9224 7.16803 17.334 7.16797H18.667C19.0789 7.16797 19.4999 7.55468 19.5 8.14941V16.3027C19.5005 16.3903 19.4621 16.5462 19.3506 16.7588C19.2435 16.9627 19.0887 17.1812 18.9082 17.3818C18.7273 17.5829 18.5326 17.7534 18.3545 17.8691C18.1645 17.9926 18.0457 18.0195 18.0039 18.0195H15.5039V18.8896C15.5038 19.2778 15.2317 19.4998 15.0039 19.5C14.7761 19.5 14.503 19.2762 14.5029 18.8896V18.0195H5.50098V18.8896C5.50092 19.278 5.22886 19.5 5.00098 19.5C4.77323 19.4997 4.50104 19.276 4.50098 18.8896V18.0195H2C1.95797 18.0193 1.83917 17.9925 1.64941 17.8691C1.47126 17.7533 1.27687 17.583 1.0957 17.3818C0.914845 17.1809 0.759165 16.9615 0.651367 16.7568C0.53914 16.5437 0.5 16.3861 0.5 16.2969V8.14941C0.500052 7.55676 0.92138 7.16797 1.33301 7.16797ZM4.66699 0.5H15.3359C16.1167 0.5 16.8369 1.22142 16.8369 2.22363V4.66895C16.7664 4.67784 16.7321 4.68555 16.6709 4.68555C15.2416 4.68555 14.1709 5.95711 14.1709 7.40918V12.0947H5.83301V7.4082C5.83283 5.95629 4.76215 4.68555 3.33301 4.68555C3.27226 4.68554 3.23646 4.67791 3.16504 4.66895V2.22461C3.16578 1.22166 3.88621 0.5 4.66699 0.5Z" fill="white" stroke="#767676"/>
</svg>
