<svg width="13"  height="13" viewBox="0 0 13 13" fill="#E64949" xmlns="http://www.w3.org/2000/svg">
<path d="M9.04004 1.10645L9.05664 1.10742H9.07227C9.92324 1.10742 10.7599
 1.49468 11.3174 2.25879C11.8736 3.02117 12.186 4.20961 11.875 5.8623C11.5739
  7.46257 10.1881 9.02695 8.77344 10.2344C8.07948 10.8267 7.40444 11.3124
   6.90234 11.6494C6.6692 11.8059 6.47334 11.929 6.33203 12.0166C6.19082
    11.9291 5.99558 11.8057 5.7627 11.6494C5.26059 11.3123 4.58464 10.8267
     3.89062 10.2344C2.476 9.02696 1.09014 7.46252 0.789062 5.8623C0.478037
      4.20964 0.790493 3.02117 1.34668 2.25879C1.90418 1.49462 2.74079 1.10742
       3.5918 1.10742H3.6084L3.62402 1.10645C4.07008 1.07719 4.51671 1.17036 4.91797
        1.37695C5.31929 1.58359 5.66209 1.89718 5.91016 2.28711L6.33203 2.9502L6.75391
         2.28711C7.00195 1.89718 7.3448 1.5836 7.74609 1.37695C8.14735 1.17035 8.59398
          1.07719 9.04004 1.10645Z" stroke="#E64949"/>
</svg>
