<svg width="13" height="15" viewBox="0 0 13 15" fill="none" xmlns="http://www.w3.org/2000/svg">
<path d="M7.57774 14.0569C7.2887 14.3411 6.90227 14.5 6.50011 14.5C6.09795 14.5 5.71159 14.3411 5.42249 14.0569C2.77511 11.4382 -0.772695 8.51283 0.957466 4.26576C1.89294 1.96941 4.13852 0.5 6.50011 0.5C8.86174 0.5 11.1073 1.96941 12.0428 4.26576C13.7708 8.50751 10.2317 11.4472 7.57774 14.0569Z" stroke="#767676"/>
<path d="M8.83025 6.80156C8.83025 8.15466 7.78569 9.25156 6.49715 9.25156C5.20862 9.25156 4.16406 8.15466 4.16406 6.80156C4.16406 5.44846 5.20862 4.35156 6.49715 4.35156C7.78569 4.35156 8.83025 5.44846 8.83025 6.80156Z" stroke="#767676"/>
</svg>
