<svg width="22" height="22" viewBox="0 0 22 22" fill="none" xmlns="http://www.w3.org/2000/svg">
<path d="M21 10.5667C21 15.8499 16.5222 20.1334 11 20.1334C10.3507 20.1343 9.7032 20.0742 9.0654 19.9545C8.60633 19.8682 8.37678 19.8251 8.21653 19.8496C8.05627 19.8741 7.82918 19.9948 7.37499 20.2364C6.09014 20.9197 4.59195 21.161 3.15111 20.893C3.69874 20.2194 4.07275 19.4112 4.23778 18.5448C4.33778 18.0148 4.09 17.5 3.71889 17.1231C2.03333 15.4115 1 13.1051 1 10.5667C1 5.28357 5.47778 1 11 1C16.5222 1 21 5.28357 21 10.5667Z" fill="white" stroke="#767676" stroke-linejoin="round"/>
<mask id="path-2-inside-1_1193_10933" fill="white">
<path d="M10.9955 11H11.0045H10.9955ZM14.991 11H15H14.991ZM7 11H7.00897H7Z"/>
</mask>
<path d="M10.9955 11H11.0045H10.9955ZM14.991 11H15H14.991ZM7 11H7.00897H7Z" fill="white"/>
<path d="M10.9955 10C10.4432 10 9.9955 10.4477 9.9955 11C9.9955 11.5523 10.4432 12 10.9955 12V10ZM11.0045 12C11.5568 12 12.0045 11.5523 12.0045 11C12.0045 10.4477 11.5568 10 11.0045 10V12ZM14.991 10C14.4387 10 13.991 10.4477 13.991 11C13.991 11.5523 14.4387 12 14.991 12V10ZM15 12C15.5523 12 16 11.5523 16 11C16 10.4477 15.5523 10 15 10V12ZM7 10C6.44772 10 6 10.4477 6 11C6 11.5523 6.44772 12 7 12V10ZM7.00897 12C7.56126 12 8.00897 11.5523 8.00897 11C8.00897 10.4477 7.56126 10 7.00897 10V12ZM10.9955 12H11.0045V10H10.9955V12ZM14.991 12H15V10H14.991V12ZM7 12H7.00897V10H7V12Z" fill="#767676" mask="url(#path-2-inside-1_1193_10933)"/>
</svg>
