<svg width="22" height="22" viewBox="0 0 22 22" fill="none" xmlns="http://www.w3.org/2000/svg">
<path d="M7.84252 4.01359L7.39512 3.00694C7.10259 2.34875 6.95632 2.01964 6.73758 1.76779C6.46343 1.45216 6.10609 1.21993 5.70632 1.09761C5.38733 1 5.02718 1 4.3069 1C3.25324 1 2.7264 1 2.28414 1.20254C1.76319 1.44113 1.29271 1.9592 1.10525 2.50067C0.946119 2.96032 0.991708 3.4327 1.08286 4.37744C2.05323 14.4335 7.56648 19.9468 17.6225 20.9171C18.5673 21.0083 19.0398 21.0539 19.4993 20.8948C20.0409 20.7073 20.5589 20.2368 20.7976 19.7159C21 19.2735 21 18.7468 21 17.6931C21 16.9728 21 16.6127 20.9024 16.2937C20.7801 15.8939 20.5479 15.5365 20.2322 15.2624C19.9804 15.0437 19.6513 14.8974 18.9931 14.6049L17.9864 14.1574C17.2737 13.8407 16.9172 13.6823 16.5551 13.6479C16.2084 13.6149 15.859 13.6635 15.5345 13.7899C15.1955 13.9219 14.896 14.1715 14.2966 14.6709C13.7002 15.168 13.402 15.4165 13.0375 15.5497C12.7144 15.6677 12.2873 15.7114 11.9471 15.6612C11.5632 15.6047 11.2693 15.4477 10.6814 15.1334C8.85253 14.1561 7.84394 13.1475 6.86653 11.3185C6.55239 10.7308 6.39532 10.4368 6.33875 10.053C6.28861 9.71266 6.33232 9.28555 6.45034 8.96255C6.58348 8.59808 6.83202 8.29984 7.32911 7.70333C7.82848 7.10408 8.07817 6.80446 8.21018 6.46545C8.33651 6.14104 8.38515 5.79155 8.35218 5.44497C8.31773 5.0828 8.15932 4.7264 7.84252 4.01359Z" fill="white" stroke="#767676" stroke-linecap="round"/>
</svg>
