<svg width="326" height="49" viewBox="0 0 326 49" fill="none" xmlns="http://www.w3.org/2000/svg">
<path d="M6.49414 46.4062C6.49414 45.854 6.04643 45.4062 5.49414 45.4062H1.00011C0.447824 45.4062 0.000109196 45.854 0.000109196 46.4062V48.6495H6.49414V46.4062Z" fill="#21292B"/>
<path d="M14.2871 46.4062C14.2871 45.854 13.8394 45.4062 13.2871 45.4062H8.79308C8.24079 45.4062 7.79308 45.854 7.79308 46.4062V48.6495H14.2871V46.4062Z" fill="#21292B"/>
<path d="M22.0801 40.7266C22.0801 40.1743 21.6324 39.7266 21.0801 39.7266H16.586C16.0338 39.7266 15.586 40.1743 15.586 40.7266V48.6456H22.0801V40.7266Z" fill="#21292B"/>
<path d="M29.873 47.2188C29.873 46.6665 29.4253 46.2188 28.873 46.2188H24.379C23.8267 46.2188 23.379 46.6665 23.379 47.2187V48.6512H29.873V47.2188Z" fill="#21292B"/>
<path d="M37.666 44.7813C37.666 44.229 37.2183 43.7812 36.666 43.7812H32.172C31.6197 43.7812 31.172 44.229 31.172 44.7812V48.6462H37.666V44.7813Z" fill="#21292B"/>
<path d="M45.459 46.4062C45.459 45.854 45.0113 45.4062 44.459 45.4062H39.965C39.4127 45.4062 38.965 45.854 38.965 46.4062V48.6495H45.459V46.4062Z" fill="#21292B"/>
<path d="M53.252 38.2969C53.252 37.7446 52.8042 37.2969 52.252 37.2969H47.7579C47.2056 37.2969 46.7579 37.7446 46.7579 38.2969V48.6483H53.252V38.2969Z" fill="#21292B"/>
<path d="M61.0449 45.5938C61.0449 45.0415 60.5972 44.5938 60.0449 44.5938H55.5509C54.9986 44.5938 54.5509 45.0415 54.5509 45.5938V48.6478H61.0449V45.5938Z" fill="#21292B"/>
<path d="M68.8379 39.1094C68.8379 38.5571 68.3902 38.1094 67.8379 38.1094H63.3439C62.7916 38.1094 62.3439 38.5571 62.3439 39.1094V48.65H68.8379V39.1094Z" fill="#21292B"/>
<path d="M76.6309 42.3516C76.6309 41.7993 76.1831 41.3516 75.6309 41.3516H71.1368C70.5845 41.3516 70.1368 41.7993 70.1368 42.3516V48.6489H76.6309V42.3516Z" fill="#21292B"/>
<path d="M84.4238 31.8125C84.4238 31.2602 83.9761 30.8125 83.4238 30.8125H78.9298C78.3775 30.8125 77.9298 31.2602 77.9298 31.8125V48.6505H84.4238V31.8125Z" fill="#21292B"/>
<path d="M92.2168 40.7344C92.2168 40.1821 91.7691 39.7344 91.2168 39.7344H86.7228C86.1705 39.7344 85.7228 40.1821 85.7228 40.7344V48.6534H92.2168V40.7344Z" fill="#21292B"/>
<path d="M100.01 20.4609C100.01 19.9087 99.5621 19.4609 99.0098 19.4609H94.5157C93.9634 19.4609 93.5157 19.9087 93.5157 20.4609V48.6504H100.01V20.4609Z" fill="#21292B"/>
<path d="M107.803 28.5625C107.803 28.0102 107.355 27.5625 106.803 27.5625H102.309C101.756 27.5625 101.309 28.0102 101.309 28.5625V48.6438H107.803V28.5625Z" fill="#21292B"/>
<path d="M115.596 34.25C115.596 33.6977 115.148 33.25 114.596 33.25H110.102C109.549 33.25 109.102 33.6977 109.102 34.25V48.6555H115.596V34.25Z" fill="#21292B"/>
<path d="M123.385 24.5156C123.385 23.9633 122.937 23.5156 122.385 23.5156H117.891C117.338 23.5156 116.891 23.9633 116.891 24.5156V48.651H123.385V24.5156Z" fill="#21292B"/>
<path d="M131.182 12.3516C131.182 11.7993 130.734 11.3516 130.182 11.3516H125.688C125.135 11.3516 124.688 11.7993 124.688 12.3516V48.6492H131.182V12.3516Z" fill="#21292B"/>
<path d="M138.971 20.4609C138.971 19.9087 138.523 19.4609 137.971 19.4609H133.477C132.924 19.4609 132.477 19.9087 132.477 20.4609V48.6504H138.971V20.4609Z" fill="#21292B"/>
<path d="M146.768 33.4375C146.768 32.8852 146.32 32.4375 145.768 32.4375H141.274C140.721 32.4375 140.274 32.8852 140.274 33.4375V48.6538H146.768V33.4375Z" fill="#21292B"/>
<path d="M162.35 40.7344C162.35 40.1821 161.902 39.7344 161.35 39.7344H156.856C156.303 39.7344 155.856 40.1821 155.856 40.7344V48.6534H162.35V40.7344Z" fill="#21292B"/>
<path d="M170.143 14.7813C170.143 14.229 169.695 13.7812 169.143 13.7812H164.649C164.096 13.7812 163.649 14.229 163.649 14.7812V48.6464H170.143V14.7813Z" fill="#21292B"/>
<path d="M177.939 32.625C177.939 32.0727 177.492 31.625 176.939 31.625H172.445C171.893 31.625 171.445 32.0727 171.445 32.625V48.6522H177.939V32.625Z" fill="#21292B"/>
<path d="M185.729 23.7031C185.729 23.1508 185.281 22.7031 184.729 22.7031H180.234C179.682 22.7031 179.234 23.1508 179.234 23.7031V48.6493H185.729V23.7031Z" fill="#21292B"/>
<path d="M193.525 31.8125C193.525 31.2602 193.078 30.8125 192.525 30.8125H188.031C187.479 30.8125 187.031 31.2602 187.031 31.8125V48.6505H193.525V31.8125Z" fill="#21292B"/>
<path d="M201.314 12.3516C201.314 11.7993 200.867 11.3516 200.314 11.3516H195.82C195.268 11.3516 194.82 11.7993 194.82 12.3516V48.6492H201.314V12.3516Z" fill="#21292B"/>
<path d="M209.111 33.4375C209.111 32.8852 208.664 32.4375 208.111 32.4375H203.617C203.065 32.4375 202.617 32.8852 202.617 33.4375V48.6538H209.111V33.4375Z" fill="#21292B"/>
<path d="M216.9 30.1875C216.9 29.6352 216.453 29.1875 215.9 29.1875H211.406C210.854 29.1875 210.406 29.6352 210.406 30.1875V48.6471H216.9V30.1875Z" fill="#21292B"/>
<path d="M224.693 25.3281C224.693 24.7758 224.246 24.3281 223.693 24.3281H219.199C218.647 24.3281 218.199 24.7758 218.199 25.3281V48.6526H224.693V25.3281Z" fill="#21292B"/>
<path d="M232.486 39.9219C232.486 39.3696 232.039 38.9219 231.486 38.9219H226.992C226.44 38.9219 225.992 39.3696 225.992 39.9219V48.6517H232.486V39.9219Z" fill="#21292B"/>
<path d="M240.283 32.625C240.283 32.0727 239.835 31.625 239.283 31.625H234.789C234.237 31.625 233.789 32.0727 233.789 32.625V48.6522H240.283V32.625Z" fill="#21292B"/>
<path d="M248.072 43.9688C248.072 43.4165 247.625 42.9688 247.072 42.9688H242.578C242.026 42.9688 241.578 43.4165 241.578 43.9688V48.6445H248.072V43.9688Z" fill="#21292B"/>
<path d="M255.865 32.625C255.865 32.0727 255.418 31.625 254.865 31.625H250.371C249.819 31.625 249.371 32.0727 249.371 32.625V48.6522H255.865V32.625Z" fill="#21292B"/>
<path d="M263.658 40.7266C263.658 40.1743 263.21 39.7266 262.658 39.7266H258.164C257.612 39.7266 257.164 40.1743 257.164 40.7266V48.6456H263.658V40.7266Z" fill="#21292B"/>
<path d="M271.451 39.1094C271.451 38.5571 271.003 38.1094 270.451 38.1094H265.957C265.405 38.1094 264.957 38.5571 264.957 39.1094V48.65H271.451V39.1094Z" fill="#21292B"/>
<path d="M279.244 41.5391C279.244 40.9868 278.796 40.5391 278.244 40.5391H273.75C273.198 40.5391 272.75 40.9868 272.75 41.5391V48.6472H279.244V41.5391Z" fill="#21292B"/>
<path d="M287.037 40.7344C287.037 40.1821 286.589 39.7344 286.037 39.7344H281.543C280.991 39.7344 280.543 40.1821 280.543 40.7344V48.6534H287.037V40.7344Z" fill="#21292B"/>
<path d="M294.83 44.7813C294.83 44.229 294.382 43.7812 293.83 43.7812H289.336C288.784 43.7812 288.336 44.229 288.336 44.7812V48.6462H294.83V44.7813Z" fill="#21292B"/>
<path d="M302.623 43.1641C302.623 42.6118 302.175 42.1641 301.623 42.1641H297.129C296.577 42.1641 296.129 42.6118 296.129 43.1641V48.6506H302.623V43.1641Z" fill="#21292B"/>
<path d="M310.416 47.2188C310.416 46.6665 309.968 46.2188 309.416 46.2188H304.922C304.37 46.2188 303.922 46.6665 303.922 47.2187V48.6512H310.416V47.2188Z" fill="#21292B"/>
<path d="M318.209 35.8672C318.209 35.3149 317.761 34.8672 317.209 34.8672H312.715C312.163 34.8672 311.715 35.3149 311.715 35.8672V48.6511H318.209V35.8672Z" fill="#21292B"/>
<path d="M326.002 43.9688C326.002 43.4165 325.554 42.9688 325.002 42.9688H320.508C319.956 42.9688 319.508 43.4165 319.508 43.9688V48.6445H326.002V43.9688Z" fill="#21292B"/>
<path d="M154.557 0.999999C154.557 0.447715 154.109 0 153.557 0H149.063C148.51 0 148.063 0.447715 148.063 1V48.649H154.557V0.999999Z" fill="#21292B"/>
</svg>
