<svg width="17" height="17" viewBox="0 0 17 17" fill="none" xmlns="http://www.w3.org/2000/svg">
<path d="M13.7429 13.75H13.75H13.7429ZM13.7429 13.75C13.2758 14.2131 12.4295 14.0978 11.8359 14.0978C11.1074 14.0978 10.7565 14.2403 10.2366 14.7603C9.79383 15.203 9.20028 16 8.5 16C7.79973 16 7.20618 15.203 6.76343 14.7603C6.24346 14.2403 5.89262 14.0978 5.16405 14.0978C4.57051 14.0978 3.72413 14.2131 3.25712 13.75C2.78636 13.2832 2.90221 12.4333 2.90221 11.8359C2.90221 11.0811 2.73712 10.7339 2.19954 10.1964C1.39986 9.3967 1.00001 8.9968 1 8.5C1.00001 8.00313 1.39984 7.6033 2.19951 6.80363C2.6794 6.32374 2.90221 5.84821 2.90221 5.16405C2.90221 4.57049 2.78687 3.7241 3.25 3.25708C3.71682 2.78633 4.5667 2.9022 5.16406 2.9022C5.8482 2.9022 6.32374 2.6794 6.80361 2.19953C7.6033 1.39984 8.00313 1 8.5 1C8.99687 1 9.3967 1.39984 10.1964 2.19953C10.6761 2.6793 11.1516 2.9022 11.8359 2.9022C12.4295 2.9022 13.2759 2.78685 13.743 3.25C14.2137 3.71682 14.0978 4.56669 14.0978 5.16405C14.0978 5.91894 14.2629 6.26603 14.8005 6.80363C15.6002 7.6033 16 8.00313 16 8.5C16 8.9968 15.6002 9.3967 14.8005 10.1964C14.2629 10.7339 14.0978 11.0811 14.0978 11.8359C14.0978 12.4333 14.2136 13.2832 13.7429 13.75Z" fill="#007DFE"/>
<path d="M13.7429 13.75H13.75M13.7429 13.75C13.2758 14.2131 12.4295 14.0978 11.8359 14.0978C11.1074 14.0978 10.7565 14.2403 10.2366 14.7603C9.79383 15.2031 9.20028 16 8.5 16C7.79972 16 7.20618 15.2031 6.76343 14.7603C6.24346 14.2403 5.89262 14.0978 5.16405 14.0978C4.57051 14.0978 3.72414 14.2131 3.25712 13.75C2.78636 13.2832 2.90221 12.4333 2.90221 11.8359C2.90221 11.0811 2.73712 10.7339 2.19954 10.1963C1.39986 9.3967 1.00001 8.9968 1 8.5C1.00001 8.00312 1.39984 7.6033 2.19951 6.80363C2.6794 6.32374 2.90221 5.84821 2.90221 5.16405C2.90221 4.57049 2.78687 3.7241 3.25 3.25708C3.71682 2.78633 4.5667 2.9022 5.16406 2.9022C5.8482 2.9022 6.32374 2.6794 6.80361 2.19953C7.6033 1.39984 8.00312 1 8.5 1C8.99688 1 9.3967 1.39984 10.1963 2.19953C10.6761 2.6793 11.1516 2.9022 11.8359 2.9022C12.4295 2.9022 13.2759 2.78685 13.743 3.25C14.2137 3.71682 14.0978 4.56669 14.0978 5.16405C14.0978 5.91894 14.2629 6.26603 14.8005 6.80363C15.6002 7.6033 16 8.00312 16 8.5C16 8.9968 15.6002 9.3967 14.8005 10.1963C14.2629 10.7339 14.0978 11.0811 14.0978 11.8359C14.0978 12.4333 14.2136 13.2832 13.7429 13.75Z" stroke="#007DFE"/>
<path d="M6.25 8.54468L7.6 9.75L10.75 6" stroke="white" stroke-linecap="round" stroke-linejoin="round"/>
</svg>
